<svg width="73" height="73" viewBox="0 0 73 73" fill="none" xmlns="http://www.w3.org/2000/svg">
<path fill-rule="evenodd" clip-rule="evenodd" d="M36.2812 8.0625C20.6965 8.0625 8.0625 20.6965 8.0625 36.2812C8.0625 51.866 20.6965 64.5 36.2812 64.5C51.866 64.5 64.5 51.866 64.5 36.2812C64.5 20.6965 51.866 8.0625 36.2812 8.0625ZM0 36.2812C0 16.2437 16.2437 0 36.2812 0C56.3188 0 72.5625 16.2437 72.5625 36.2812C72.5625 56.3188 56.3188 72.5625 36.2812 72.5625C16.2437 72.5625 0 56.3188 0 36.2812Z" fill="#56B5C1"/>
<path fill-rule="evenodd" clip-rule="evenodd" d="M36.2812 16.125C38.5076 16.125 40.3125 17.9299 40.3125 20.1562V34.6115L51.2255 45.5245C52.7998 47.0988 52.7998 49.6512 51.2255 51.2255C49.6512 52.7998 47.0988 52.7998 45.5245 51.2255L33.4307 39.1318C32.6747 38.3758 32.25 37.3504 32.25 36.2812V20.1562C32.25 17.9299 34.0549 16.125 36.2812 16.125Z" fill="#E9EBF7"/>
</svg>
