<svg width="10" height="11" viewBox="0 0 10 11" fill="none" xmlns="http://www.w3.org/2000/svg">
<path d="M2.12314 0.925222C1.64956 0.641074 1.0353 0.794639 0.75115 1.26822C0.467001 1.7418 0.620567 2.35606 1.09415 2.64021L2.12314 0.925222ZM7.80429 5.50011L8.35899 6.33216L9.6738 5.45562L8.31879 4.64261L7.80429 5.50011ZM1.05394 8.79849C0.594414 9.10484 0.47024 9.72571 0.776592 10.1852C1.08294 10.6448 1.70381 10.7689 2.16334 10.4626L1.05394 8.79849ZM1.09415 2.64021L7.2898 6.3576L8.31879 4.64261L2.12314 0.925222L1.09415 2.64021ZM7.24959 4.66806L1.05394 8.79849L2.16334 10.4626L8.35899 6.33216L7.24959 4.66806Z" fill="black"/>
</svg>
